<svg width="24" height="24" viewBox="0 0 24 24" fill="none" xmlns="http://www.w3.org/2000/svg">
<path d="M15.2613 19.0713C15.0839 19.4996 14.8238 19.8888 14.496 20.2166C14.1682 20.5444 13.7791 20.8044 13.3507 20.9818C12.9224 21.1592 12.4634 21.2506 11.9998 21.2506C11.5362 21.2506 11.0771 21.1592 10.6488 20.9818C10.2205 20.8044 9.83135 20.5444 9.50354 20.2166C9.17573 19.8888 8.91569 19.4996 8.73828 19.0713" stroke="black" stroke-width="2"/>
<path d="M6.17746 10.5726C6.17746 7.35687 8.78434 4.75 12.0001 4.75C15.2158 4.75 17.8227 7.35687 17.8227 10.5726V14.0664H18.0002C19.1047 14.0664 20.0002 14.9618 20.0002 16.0664V16.6167C20.0002 17.7213 19.1047 18.6167 18.0002 18.6167H6C4.89544 18.6167 4.00001 17.7213 4 16.6168L4 16.0664C3.99999 14.9618 4.89543 14.0664 6 14.0664H6.17746V10.5726Z" stroke="black" stroke-width="2" stroke-linejoin="round"/>
<path d="M10.4727 4.58241L10.4727 4.28027C10.4727 3.43674 11.1565 2.75293 12 2.75293C12.8435 2.75293 13.5273 3.43674 13.5273 4.28027V4.50026" stroke="black" stroke-width="2" stroke-linecap="round" stroke-linejoin="round"/>
</svg>
