<svg width="22" height="18" viewBox="0 0 22 18" fill="none" xmlns="http://www.w3.org/2000/svg">
<path d="M14.1514 8.88882H17.7318C19.5369 8.88882 21.0002 10.3522 21.0002 12.1573C21.0002 13.0598 20.2685 13.7915 19.366 13.7915H18.112M11.7545 4.89529C11.7545 6.78125 10.2225 8.31011 8.33276 8.31011C6.443 8.31011 4.91104 6.78125 4.91104 4.89529C4.91104 3.00934 6.443 1.48047 8.33276 1.48047C10.2225 1.48047 11.7545 3.00934 11.7545 4.89529ZM8.33226 10.7493C7.29661 10.7493 6.06113 10.7493 4.90222 10.7493C2.74684 10.7493 1 12.4965 1 14.6519C1 15.7296 1.87364 16.6032 2.95133 16.6032H13.7132C14.7909 16.6032 15.6645 15.7296 15.6645 14.6519C15.6645 12.4965 13.9177 10.7493 11.7623 10.7493C10.6034 10.7493 9.36791 10.7493 8.33226 10.7493ZM18.3933 4.27672C18.3933 5.53402 17.372 6.55327 16.1122 6.55327C14.8524 6.55327 13.8311 5.53402 13.8311 4.27672C13.8311 3.01942 14.8524 2.00018 16.1122 2.00018C17.372 2.00018 18.3933 3.01942 18.3933 4.27672Z" stroke="#5985CB" stroke-width="1.5" stroke-linecap="round"/>
</svg>
