<svg width="46" height="46" viewBox="0 0 46 46" fill="none" xmlns="http://www.w3.org/2000/svg">
<path d="M24.6244 0.674329C24.411 0.460564 24.1575 0.290976 23.8785 0.175267C23.5995 0.059558 23.3004 0 22.9984 0C22.6963 0 22.3972 0.059558 22.1182 0.175267C21.8392 0.290976 21.5858 0.460564 21.3723 0.674329L0.673376 21.3733C0.351831 21.6949 0.132867 22.1047 0.0441658 22.5508C-0.0445352 22.9968 0.00100954 23.4592 0.175042 23.8794C0.349074 24.2996 0.643781 24.6587 1.0219 24.9114C1.40003 25.1642 1.84459 25.2991 2.2994 25.2992H4.59928V41.3984C4.59928 43.9352 6.66228 45.9982 9.19905 45.9982H36.7977C39.3345 45.9982 41.3975 43.9352 41.3975 41.3984V25.2992H43.6973C44.1526 25.3002 44.598 25.1659 44.9768 24.9134C45.3556 24.6608 45.6509 24.3014 45.8251 23.8808C45.9994 23.4602 46.0447 22.9972 45.9553 22.5508C45.866 22.1043 45.646 21.6945 45.3234 21.3733L24.6244 0.674329ZM36.8 41.3984H9.19905V19.3517L22.9984 5.55239L36.7977 19.3517V29.899L36.8 41.3984Z" fill="url(#paint0_linear_2347_6950)"/>
<path d="M25.2983 18.3994H20.6985V25.2991H13.7988V29.8988H20.6985V36.7985H25.2983V29.8988H32.1979V25.2991H25.2983V18.3994Z" fill="url(#paint1_linear_2347_6950)"/>
<defs>
<linearGradient id="paint0_linear_2347_6950" x1="23" y1="0" x2="23" y2="45.9982" gradientUnits="userSpaceOnUse">
<stop stop-color="#3066BE"/>
<stop offset="1" stop-color="#119DA4"/>
</linearGradient>
<linearGradient id="paint1_linear_2347_6950" x1="22.9984" y1="18.3994" x2="22.9984" y2="36.7985" gradientUnits="userSpaceOnUse">
<stop stop-color="#3066BE"/>
<stop offset="1" stop-color="#119DA4"/>
</linearGradient>
</defs>
</svg>
