<svg width="31" height="34" viewBox="0 0 31 34" fill="none" xmlns="http://www.w3.org/2000/svg">
<path d="M28.7448 13.3617V8.25529C28.7448 6.37517 27.2207 4.85104 25.3405 4.85104H4.915C3.03488 4.85104 1.51074 6.37517 1.51074 8.25529V13.3617M28.7448 13.3617V28.6808C28.7448 30.561 27.2207 32.0851 25.3405 32.0851H4.915C3.03488 32.0851 1.51074 30.561 1.51074 28.6808V13.3617M28.7448 13.3617H1.51074M8.31925 1.44678V8.25529M21.9363 1.44678V8.25529" stroke="#5D88A8" stroke-width="2.55319" stroke-linecap="round"/>
<path d="M9.17036 16.7659H5.7661C5.29607 16.7659 4.91504 17.147 4.91504 17.617V21.0212C4.91504 21.4913 5.29607 21.8723 5.7661 21.8723H9.17036C9.64039 21.8723 10.0214 21.4913 10.0214 21.0212V17.617C10.0214 17.147 9.64039 16.7659 9.17036 16.7659Z" fill="#5D88A8"/>
<path d="M16.8298 16.7659H13.4255C12.9555 16.7659 12.5745 17.147 12.5745 17.617V21.0212C12.5745 21.4913 12.9555 21.8723 13.4255 21.8723H16.8298C17.2998 21.8723 17.6808 21.4913 17.6808 21.0212V17.617C17.6808 17.147 17.2998 16.7659 16.8298 16.7659Z" fill="#5D88A8"/>
<path d="M24.4894 16.7659H21.0852C20.6152 16.7659 20.2341 17.147 20.2341 17.617V21.0212C20.2341 21.4913 20.6152 21.8723 21.0852 21.8723H24.4894C24.9595 21.8723 25.3405 21.4913 25.3405 21.0212V17.617C25.3405 17.147 24.9595 16.7659 24.4894 16.7659Z" fill="#5D88A8"/>
</svg>
