<svg width="105" height="42" viewBox="0 0 105 42" fill="none" xmlns="http://www.w3.org/2000/svg">
<g filter="url(#filter0_f_1888_6197)">
<path d="M13.9467 11.8945C13.9467 11.8945 13.8027 1.62396 23.0088 1.02586C28.3339 0.679901 31.3039 3.8575 31.6652 7.41116C32.0846 11.5369 28.7697 17.079 23.0266 17.079C16.4051 17.079 10.2959 12.2972 9.07747 21.2686C6.00878 21.4046 0.176781 20.2121 1.09739 14.3399C1.69304 10.4795 7.63198 11.1015 10.5653 11.8945C13.7242 13.2764 20.6263 15.916 22.7383 15.6985C25.3783 15.4266 26.6608 14.8846 26.5255 12.5737C26.3901 10.2629 23.7547 9.2452 21.6562 9.31317C19.5578 9.38113 13.9467 11.8945 13.9467 11.8945Z" fill="#3066BE"/>
<path d="M34.3716 8.30566C33.2886 8.50954 31.1255 9.77105 31.1255 13.1965C31.1255 17.4784 29.8433 21.0755 26.9326 22.4348C24.604 23.5223 20.4645 23.069 18.682 22.7065C17.4184 22.4347 14.5717 21.9185 13.0012 22.0273C11.0382 22.1632 4.61665 23.0438 3.26282 27.4616C1.90899 31.8793 2.10619 37.8532 9.48458 40.6397C11.2716 41.2922 13.3611 40.9116 14.2185 40.6397C15.3879 40.2528 17.3085 39.0049 19.378 37.6208C20.8225 36.6548 22.959 34.6675 23.4159 34.2544C27.5209 30.5432 33.1543 25.2878 33.1543 25.2878C33.1543 25.2878 29.1688 34.458 24.3627 34.7979C25.7165 36.4834 26.2256 37.5101 28.5556 38.6019C29.2325 38.919 31.2312 39.3631 33.8306 38.6019C37.0798 37.6504 41.0668 30.7918 40.9992 27.5974C40.9315 24.4031 41.2048 22.1634 38.294 21.6197C35.9654 21.1847 32.0738 23.6116 30.4492 24.8803C28.4862 26.5341 25.2 29.8 22.0131 32.7643C20.6705 34.0131 19.7612 34.1591 18.1409 34.5262C13.4 35.6 12.2083 33.4549 11.4 32C10.9 31.1 10.3617 28.7248 13.0012 27.4616C17.1 25.5 18.272 26.8505 22.7396 26.2388C27.2073 25.6272 29.434 23.5226 30.314 21.7555C31.0179 20.3419 32.0723 16.7288 32.0723 16.7288C32.0723 16.7288 33.6684 20.5579 33.5601 21.6197C34.9139 21.2799 36.602 21.0769 38.0235 19.8535C39.4451 18.6302 39.5076 14.8958 39.3761 14.1475C39.1445 12.8299 39.107 11.4991 37.6178 9.93595C36.4264 8.6854 34.9357 8.30566 34.3716 8.30566Z" fill="#3066BE"/>
</g>
<path d="M50.184 17V5.64H55C55.5227 5.64 56.0027 5.74667 56.44 5.96C56.8773 6.17333 57.256 6.46133 57.576 6.824C57.9067 7.18667 58.1627 7.592 58.344 8.04C58.5253 8.488 58.616 8.94667 58.616 9.416C58.616 10.056 58.4667 10.664 58.168 11.24C57.8693 11.816 57.4587 12.2853 56.936 12.648C56.4133 13.0107 55.7947 13.192 55.08 13.192H52.392V17H50.184ZM52.392 11.256H54.952C55.2187 11.256 55.4587 11.1813 55.672 11.032C55.8853 10.8827 56.056 10.6693 56.184 10.392C56.312 10.104 56.376 9.77867 56.376 9.416C56.376 9.02133 56.3013 8.68533 56.152 8.408C56.0133 8.13067 55.8267 7.92267 55.592 7.784C55.368 7.64533 55.1227 7.576 54.856 7.576H52.392V11.256ZM59.9288 5.32H62.0728V14.312C62.0728 14.696 62.1368 14.9573 62.2648 15.096C62.3928 15.224 62.5688 15.288 62.7928 15.288C62.9634 15.288 63.1394 15.2667 63.3208 15.224C63.5021 15.1813 63.6621 15.128 63.8008 15.064L64.0888 16.696C63.8008 16.8347 63.4648 16.9413 63.0807 17.016C62.6968 17.0907 62.3501 17.128 62.0408 17.128C61.3688 17.128 60.8461 16.952 60.4728 16.6C60.1101 16.2373 59.9288 15.7253 59.9288 15.064V5.32ZM64.4469 14.52C64.4469 13.976 64.5962 13.5013 64.8949 13.096C65.2042 12.68 65.6309 12.36 66.1749 12.136C66.7189 11.912 67.3429 11.8 68.0469 11.8C68.3989 11.8 68.7562 11.8267 69.1189 11.88C69.4815 11.9333 69.7962 12.0187 70.0629 12.136V11.688C70.0629 11.1547 69.9029 10.744 69.5829 10.456C69.2735 10.168 68.8095 10.024 68.1909 10.024C67.7322 10.024 67.2949 10.104 66.8789 10.264C66.4629 10.424 66.0255 10.6587 65.5669 10.968L64.8789 9.56C65.4335 9.19733 65.9989 8.92533 66.5749 8.744C67.1615 8.56267 67.7749 8.472 68.4149 8.472C69.6095 8.472 70.5375 8.77067 71.1989 9.368C71.8709 9.96533 72.2069 10.8187 72.2069 11.928V14.6C72.2069 14.824 72.2442 14.984 72.3189 15.08C72.4042 15.176 72.5375 15.2347 72.7189 15.256V17C72.5269 17.032 72.3509 17.0587 72.1909 17.08C72.0415 17.1013 71.9135 17.112 71.8069 17.112C71.3802 17.112 71.0549 17.016 70.8309 16.824C70.6175 16.632 70.4842 16.3973 70.4309 16.12L70.3829 15.688C70.0202 16.1573 69.5669 16.52 69.0229 16.776C68.4789 17.032 67.9242 17.16 67.3589 17.16C66.8042 17.16 66.3029 17.048 65.8549 16.824C65.4175 16.5893 65.0709 16.2747 64.8149 15.88C64.5695 15.4747 64.4469 15.0213 64.4469 14.52ZM69.6629 14.952C69.7802 14.824 69.8762 14.696 69.9509 14.568C70.0255 14.44 70.0629 14.3227 70.0629 14.216V13.368C69.8069 13.2613 69.5295 13.1813 69.2309 13.128C68.9322 13.064 68.6495 13.032 68.3829 13.032C67.8282 13.032 67.3695 13.1547 67.0069 13.4C66.6549 13.6347 66.4789 13.9493 66.4789 14.344C66.4789 14.5573 66.5375 14.76 66.6549 14.952C66.7722 15.144 66.9429 15.2987 67.1669 15.416C67.3909 15.5333 67.6575 15.592 67.9669 15.592C68.2869 15.592 68.6015 15.5333 68.9109 15.416C69.2202 15.288 69.4709 15.1333 69.6629 14.952ZM77.2984 17.16C76.5837 17.16 75.901 17.0427 75.2504 16.808C74.5997 16.5733 74.0397 16.2267 73.5704 15.768L74.3384 14.376C74.8397 14.7813 75.3304 15.08 75.8104 15.272C76.301 15.464 76.7704 15.56 77.2184 15.56C77.6344 15.56 77.965 15.4853 78.2104 15.336C78.4664 15.1867 78.5944 14.9627 78.5944 14.664C78.5944 14.4613 78.525 14.3067 78.3864 14.2C78.2477 14.0827 78.045 13.9813 77.7784 13.896C77.5224 13.8107 77.2077 13.7147 76.8344 13.608C76.2157 13.4053 75.6984 13.208 75.2824 13.016C74.8664 12.824 74.5517 12.584 74.3384 12.296C74.1357 11.9973 74.0344 11.6187 74.0344 11.16C74.0344 10.6053 74.173 10.1307 74.4504 9.736C74.7384 9.33067 75.133 9.016 75.6344 8.792C76.1464 8.568 76.7437 8.456 77.4264 8.456C78.0237 8.456 78.589 8.552 79.1224 8.744C79.6557 8.92533 80.141 9.224 80.5784 9.64L79.7144 11C79.2877 10.6693 78.8824 10.4293 78.4984 10.28C78.1144 10.12 77.725 10.04 77.3304 10.04C77.1064 10.04 76.893 10.0667 76.6904 10.12C76.4984 10.1733 76.3384 10.264 76.2104 10.392C76.093 10.5093 76.0344 10.68 76.0344 10.904C76.0344 11.1067 76.0877 11.2667 76.1944 11.384C76.3117 11.4907 76.4824 11.5867 76.7064 11.672C76.941 11.7573 77.2237 11.8533 77.5544 11.96C78.2264 12.152 78.7917 12.3493 79.2504 12.552C79.7197 12.7547 80.0717 13.0053 80.3064 13.304C80.541 13.592 80.6584 13.992 80.6584 14.504C80.6584 15.336 80.3544 15.9867 79.7464 16.456C79.1384 16.9253 78.3224 17.16 77.2984 17.16ZM87.0938 16.568C86.9124 16.6427 86.6938 16.728 86.4378 16.824C86.1818 16.92 85.9044 16.9947 85.6058 17.048C85.3178 17.112 85.0244 17.144 84.7258 17.144C84.3311 17.144 83.9684 17.0747 83.6378 16.936C83.3071 16.7973 83.0404 16.5787 82.8378 16.28C82.6458 15.9707 82.5498 15.5707 82.5498 15.08V10.264H81.4458V8.616H82.5498V5.896H84.6938V8.616H86.4538V10.264H84.6938V14.36C84.7044 14.648 84.7844 14.856 84.9338 14.984C85.0831 15.112 85.2698 15.176 85.4938 15.176C85.7178 15.176 85.9364 15.1387 86.1498 15.064C86.3631 14.9893 86.5338 14.9253 86.6618 14.872L87.0938 16.568ZM88.2104 17V8.616H90.3544V17H88.2104ZM88.2104 7.448V5.32H90.3544V7.448H88.2104ZM96.1925 17.16C95.5098 17.16 94.8965 17.048 94.3525 16.824C93.8085 16.5893 93.3445 16.2693 92.9605 15.864C92.5765 15.448 92.2778 14.9787 92.0645 14.456C91.8618 13.9333 91.7605 13.384 91.7605 12.808C91.7605 12.0187 91.9365 11.2987 92.2885 10.648C92.6512 9.98667 93.1632 9.45867 93.8245 9.064C94.4858 8.66933 95.2698 8.472 96.1765 8.472C97.0832 8.472 97.8618 8.66933 98.5125 9.064C99.1632 9.45867 99.6485 9.976 99.9685 10.616L97.8725 11.256C97.6912 10.9467 97.4512 10.712 97.1525 10.552C96.8538 10.3813 96.5232 10.296 96.1605 10.296C95.7552 10.296 95.3818 10.4027 95.0405 10.616C94.7098 10.8187 94.4485 11.112 94.2565 11.496C94.0645 11.8693 93.9685 12.3067 93.9685 12.808C93.9685 13.2987 94.0645 13.736 94.2565 14.12C94.4592 14.4933 94.7258 14.792 95.0565 15.016C95.3872 15.2293 95.7552 15.336 96.1605 15.336C96.4165 15.336 96.6565 15.2933 96.8805 15.208C97.1152 15.1227 97.3232 15.0053 97.5045 14.856C97.6858 14.7067 97.8192 14.536 97.9045 14.344L100.001 14.984C99.8085 15.4 99.5258 15.7733 99.1525 16.104C98.7898 16.4347 98.3578 16.696 97.8565 16.888C97.3658 17.0693 96.8112 17.16 96.1925 17.16ZM59.336 33.072C59.336 33.712 59.1707 34.2507 58.84 34.688C58.5093 35.1147 58.0613 35.44 57.496 35.664C56.9413 35.888 56.3333 36 55.672 36H50.184V24.64H56.264C56.7973 24.64 57.256 24.784 57.64 25.072C58.0347 25.3493 58.3333 25.712 58.536 26.16C58.7493 26.5973 58.856 27.056 58.856 27.536C58.856 28.08 58.7173 28.5973 58.44 29.088C58.1627 29.5787 57.7573 29.9413 57.224 30.176C57.8747 30.368 58.3867 30.7147 58.76 31.216C59.144 31.7173 59.336 32.336 59.336 33.072ZM57.112 32.656C57.112 32.368 57.0533 32.112 56.936 31.888C56.8187 31.6533 56.6587 31.472 56.456 31.344C56.264 31.2053 56.04 31.136 55.784 31.136H52.392V34.128H55.672C55.9387 34.128 56.1787 34.064 56.392 33.936C56.616 33.7973 56.792 33.616 56.92 33.392C57.048 33.168 57.112 32.9227 57.112 32.656ZM52.392 26.528V29.392H55.336C55.5813 29.392 55.8053 29.3333 56.008 29.216C56.2107 29.0987 56.3707 28.9333 56.488 28.72C56.616 28.5067 56.68 28.2507 56.68 27.952C56.68 27.664 56.6213 27.4133 56.504 27.2C56.3973 26.9867 56.248 26.8213 56.056 26.704C55.8747 26.5867 55.6667 26.528 55.432 26.528H52.392ZM64.739 36.16C64.067 36.16 63.459 36.048 62.915 35.824C62.371 35.5893 61.907 35.2747 61.523 34.88C61.139 34.4747 60.8403 34.016 60.627 33.504C60.4243 32.9813 60.323 32.432 60.323 31.856C60.323 31.056 60.499 30.3253 60.851 29.664C61.2137 29.0027 61.7257 28.4747 62.387 28.08C63.059 27.6747 63.8483 27.472 64.755 27.472C65.6723 27.472 66.4563 27.6747 67.107 28.08C67.7577 28.4747 68.2537 29.0027 68.595 29.664C68.947 30.3147 69.123 31.0187 69.123 31.776C69.123 31.904 69.1177 32.0373 69.107 32.176C69.0963 32.304 69.0857 32.4107 69.075 32.496H62.595C62.6377 32.9227 62.7603 33.296 62.963 33.616C63.1763 33.936 63.443 34.1813 63.763 34.352C64.0937 34.512 64.4457 34.592 64.819 34.592C65.2457 34.592 65.6457 34.4907 66.019 34.288C66.403 34.0747 66.6643 33.7973 66.803 33.456L68.643 33.968C68.4403 34.3947 68.147 34.7733 67.763 35.104C67.3897 35.4347 66.947 35.696 66.435 35.888C65.923 36.0693 65.3577 36.16 64.739 36.16ZM62.547 31.136H66.931C66.8883 30.7093 66.7657 30.3413 66.563 30.032C66.371 29.712 66.115 29.4667 65.795 29.296C65.475 29.1147 65.1177 29.024 64.723 29.024C64.339 29.024 63.987 29.1147 63.667 29.296C63.3577 29.4667 63.1017 29.712 62.899 30.032C62.707 30.3413 62.5897 30.7093 62.547 31.136ZM69.8531 33.52C69.8531 32.976 70.0025 32.5013 70.3011 32.096C70.6105 31.68 71.0371 31.36 71.5811 31.136C72.1251 30.912 72.7491 30.8 73.4531 30.8C73.8051 30.8 74.1625 30.8267 74.5251 30.88C74.8878 30.9333 75.2025 31.0187 75.4691 31.136V30.688C75.4691 30.1547 75.3091 29.744 74.9891 29.456C74.6798 29.168 74.2158 29.024 73.5971 29.024C73.1385 29.024 72.7011 29.104 72.2851 29.264C71.8691 29.424 71.4318 29.6587 70.9731 29.968L70.2851 28.56C70.8398 28.1973 71.4051 27.9253 71.9811 27.744C72.5678 27.5627 73.1811 27.472 73.8211 27.472C75.0158 27.472 75.9438 27.7707 76.6051 28.368C77.2771 28.9653 77.6131 29.8187 77.6131 30.928V33.6C77.6131 33.824 77.6505 33.984 77.7251 34.08C77.8105 34.176 77.9438 34.2347 78.1251 34.256V36C77.9331 36.032 77.7571 36.0587 77.5971 36.08C77.4478 36.1013 77.3198 36.112 77.2131 36.112C76.7865 36.112 76.4611 36.016 76.2371 35.824C76.0238 35.632 75.8905 35.3973 75.8371 35.12L75.7891 34.688C75.4265 35.1573 74.9731 35.52 74.4291 35.776C73.8851 36.032 73.3305 36.16 72.7651 36.16C72.2105 36.16 71.7091 36.048 71.2611 35.824C70.8238 35.5893 70.4771 35.2747 70.2211 34.88C69.9758 34.4747 69.8531 34.0213 69.8531 33.52ZM75.0691 33.952C75.1865 33.824 75.2825 33.696 75.3571 33.568C75.4318 33.44 75.4691 33.3227 75.4691 33.216V32.368C75.2131 32.2613 74.9358 32.1813 74.6371 32.128C74.3385 32.064 74.0558 32.032 73.7891 32.032C73.2345 32.032 72.7758 32.1547 72.4131 32.4C72.0611 32.6347 71.8851 32.9493 71.8851 33.344C71.8851 33.5573 71.9438 33.76 72.0611 33.952C72.1785 34.144 72.3491 34.2987 72.5731 34.416C72.7971 34.5333 73.0638 34.592 73.3731 34.592C73.6931 34.592 74.0078 34.5333 74.3171 34.416C74.6265 34.288 74.8771 34.1333 75.0691 33.952ZM79.5366 32.864V27.616H81.6806V32.4C81.6806 33.04 81.798 33.5253 82.0326 33.856C82.2673 34.176 82.614 34.336 83.0726 34.336C83.35 34.336 83.622 34.2827 83.8886 34.176C84.166 34.0587 84.4166 33.888 84.6406 33.664C84.8753 33.44 85.0726 33.1573 85.2326 32.816V27.616H87.3766V33.6C87.3766 33.824 87.414 33.984 87.4886 34.08C87.574 34.176 87.7073 34.2347 87.8886 34.256V36C87.6753 36.032 87.494 36.0533 87.3446 36.064C87.206 36.0853 87.078 36.096 86.9606 36.096C86.5766 36.096 86.262 36.0107 86.0166 35.84C85.782 35.6587 85.6433 35.4133 85.6006 35.104L85.5526 34.432C85.1793 34.9973 84.6993 35.4293 84.1126 35.728C83.526 36.016 82.8806 36.16 82.1766 36.16C81.3126 36.16 80.6566 35.8827 80.2086 35.328C79.7606 34.7627 79.5366 33.9413 79.5366 32.864ZM94.5 35.568C94.3187 35.6427 94.1 35.728 93.844 35.824C93.588 35.92 93.3107 35.9947 93.012 36.048C92.724 36.112 92.4307 36.144 92.132 36.144C91.7373 36.144 91.3747 36.0747 91.044 35.936C90.7133 35.7973 90.4467 35.5787 90.244 35.28C90.052 34.9707 89.956 34.5707 89.956 34.08V29.264H88.852V27.616H89.956V24.896H92.1V27.616H93.86V29.264H92.1V33.36C92.1107 33.648 92.1907 33.856 92.34 33.984C92.4893 34.112 92.676 34.176 92.9 34.176C93.124 34.176 93.3427 34.1387 93.556 34.064C93.7693 33.9893 93.94 33.9253 94.068 33.872L94.5 35.568ZM95.7614 37.632C95.9534 37.6747 96.1294 37.712 96.2894 37.744C96.46 37.776 96.604 37.792 96.7214 37.792C96.924 37.792 97.0894 37.7387 97.2174 37.632C97.356 37.536 97.4894 37.3547 97.6174 37.088C97.7454 36.832 97.8787 36.4693 98.0174 36L94.7054 27.616H96.9294L99.1854 33.808L101.169 27.616H103.217L99.6974 37.664C99.5694 38.0373 99.372 38.3733 99.1054 38.672C98.8494 38.9813 98.524 39.2213 98.1294 39.392C97.7454 39.5733 97.3134 39.664 96.8334 39.664C96.6627 39.664 96.492 39.648 96.3214 39.616C96.1507 39.5947 95.964 39.552 95.7614 39.488V37.632Z" fill="#3066BE"/>
<defs>
<filter id="filter0_f_1888_6197" x="0.955" y="0.955" width="40.09" height="40.09" filterUnits="userSpaceOnUse" color-interpolation-filters="sRGB">
<feFlood flood-opacity="0" result="BackgroundImageFix"/>
<feBlend mode="normal" in="SourceGraphic" in2="BackgroundImageFix" result="shape"/>
<feGaussianBlur stdDeviation="0.0225" result="effect1_foregroundBlur_1888_6197"/>
</filter>
</defs>
</svg>
