<svg width="29" height="29" viewBox="0 0 29 29" fill="none" xmlns="http://www.w3.org/2000/svg">
<path d="M5.54807 18.7128C3.15508 19.6252 1.67041 20.8965 1.67041 22.3028C1.67041 25.0792 7.45737 27.3298 14.5959 27.3298C21.7346 27.3298 27.5215 25.0792 27.5215 22.3028C27.5215 20.8965 26.0368 19.6252 23.6438 18.7128M14.5959 10.0957H14.6103M23.213 10.0957C23.213 15.9319 16.7502 18.7128 14.5959 23.0213C12.4417 18.7128 5.97892 15.9319 5.97892 10.0957C5.97892 5.33668 9.83689 1.47871 14.5959 1.47871C19.355 1.47871 23.213 5.33668 23.213 10.0957ZM16.0321 10.0957C16.0321 10.8889 15.3891 11.5319 14.5959 11.5319C13.8027 11.5319 13.1598 10.8889 13.1598 10.0957C13.1598 9.30257 13.8027 8.65957 14.5959 8.65957C15.3891 8.65957 16.0321 9.30257 16.0321 10.0957Z" stroke="#5D88A8" stroke-width="2.55319" stroke-linecap="round" stroke-linejoin="round"/>
</svg>
