<svg width="24" height="24" viewBox="0 0 24 24" fill="none" xmlns="http://www.w3.org/2000/svg">
<path d="M12 11.2016C14.0619 11.2016 15.7333 9.53351 15.7333 7.47581C15.7333 5.4181 14.0619 3.75 12 3.75C9.93813 3.75 8.26665 5.4181 8.26665 7.47581C8.26665 9.53351 9.93813 11.2016 12 11.2016Z" stroke="white" stroke-width="1.5"/>
<path d="M4 17.8629C4 15.6538 5.79039 13.8629 7.99953 13.8629C9.33672 13.8629 10.7928 13.8629 12 13.8629C13.2072 13.8629 14.6633 13.8629 16.0005 13.8629C18.2096 13.8629 20 15.6538 20 17.8629V18.25C20 19.3546 19.1046 20.25 18 20.25H6C4.89543 20.25 4 19.3546 4 18.25V17.8629Z" stroke="white" stroke-width="1.5"/>
</svg>
