<svg width="24" height="24" viewBox="0 0 24 24" fill="none" xmlns="http://www.w3.org/2000/svg">
<path d="M11.1973 10.0303C11.4902 9.73744 11.4902 9.26256 11.1973 8.96967C10.9044 8.67678 10.4296 8.67678 10.1367 8.96967L11.1973 10.0303ZM9 11.167L8.46967 11.6973C8.76256 11.9902 9.23744 11.9902 9.53033 11.6973L9 11.167ZM8.53033 9.63667C8.23744 9.34378 7.76256 9.34378 7.46967 9.63667C7.17678 9.92956 7.17678 10.4044 7.46967 10.6973L8.53033 9.63667ZM13 9.25C12.5858 9.25 12.25 9.58579 12.25 10C12.25 10.4142 12.5858 10.75 13 10.75V9.25ZM16 10.75C16.4142 10.75 16.75 10.4142 16.75 10C16.75 9.58579 16.4142 9.25 16 9.25V10.75ZM11.1973 14.0303C11.4902 13.7374 11.4902 13.2626 11.1973 12.9697C10.9044 12.6768 10.4296 12.6768 10.1367 12.9697L11.1973 14.0303ZM9 15.167L8.46967 15.6973C8.76256 15.9902 9.23744 15.9902 9.53033 15.6973L9 15.167ZM8.53033 13.6367C8.23744 13.3438 7.76256 13.3438 7.46967 13.6367C7.17678 13.9296 7.17678 14.4044 7.46967 14.6973L8.53033 13.6367ZM13 14.25C12.5858 14.25 12.25 14.5858 12.25 15C12.25 15.4142 12.5858 15.75 13 15.75V14.25ZM16 15.75C16.4142 15.75 16.75 15.4142 16.75 15C16.75 14.5858 16.4142 14.25 16 14.25V15.75ZM15.3772 5.05709L16.0735 5.33563L16.0735 5.33563L15.3772 5.05709ZM8.62283 5.05709L7.92648 5.33563L7.92648 5.33563L8.62283 5.05709ZM18.75 6.5V17.5H20.25V6.5H18.75ZM16.5 19.75H7.5V21.25H16.5V19.75ZM5.25 17.5V6.5H3.75V17.5H5.25ZM16.5 2.75H7.5V4.25H16.5V2.75ZM7.5 19.75C6.25736 19.75 5.25 18.7426 5.25 17.5H3.75C3.75 19.5711 5.42893 21.25 7.5 21.25V19.75ZM18.75 17.5C18.75 18.7426 17.7426 19.75 16.5 19.75V21.25C18.5711 21.25 20.25 19.5711 20.25 17.5H18.75ZM20.25 6.5C20.25 4.42893 18.5711 2.75 16.5 2.75V4.25C17.7426 4.25 18.75 5.25736 18.75 6.5H20.25ZM5.25 6.5C5.25 5.25736 6.25736 4.25 7.5 4.25V2.75C5.42893 2.75 3.75 4.42893 3.75 6.5H5.25ZM10.1367 8.96967L8.46967 10.6367L9.53033 11.6973L11.1973 10.0303L10.1367 8.96967ZM9.53033 10.6367L8.53033 9.63667L7.46967 10.6973L8.46967 11.6973L9.53033 10.6367ZM13 10.75H16V9.25H13V10.75ZM10.1367 12.9697L8.46967 14.6367L9.53033 15.6973L11.1973 14.0303L10.1367 12.9697ZM9.53033 14.6367L8.53033 13.6367L7.46967 14.6973L8.46967 15.6973L9.53033 14.6367ZM13 15.75H16V14.25H13V15.75ZM15.3036 3.22146L14.6808 4.77854L16.0735 5.33563L16.6964 3.77854L15.3036 3.22146ZM13.9845 5.25H10.0155V6.75H13.9845V5.25ZM9.31919 4.77854L8.69636 3.22146L7.30364 3.77854L7.92648 5.33563L9.31919 4.77854ZM10.0155 5.25C9.70887 5.25 9.43309 5.06329 9.31919 4.77854L7.92648 5.33563C8.26817 6.18986 9.09551 6.75 10.0155 6.75V5.25ZM14.6808 4.77854C14.5669 5.06329 14.2911 5.25 13.9845 5.25V6.75C14.9045 6.75 15.7318 6.18986 16.0735 5.33563L14.6808 4.77854Z" fill="#5985CB"/>
</svg>
