<svg width="24" height="24" viewBox="0 0 24 24" fill="none" xmlns="http://www.w3.org/2000/svg">
<path d="M9.5 12.75C9.08579 12.75 8.75 13.0858 8.75 13.5C8.75 13.9142 9.08579 14.25 9.5 14.25V12.75ZM14.5 14.25C14.9142 14.25 15.25 13.9142 15.25 13.5C15.25 13.0858 14.9142 12.75 14.5 12.75V14.25ZM12.75 11C12.75 10.5858 12.4142 10.25 12 10.25C11.5858 10.25 11.25 10.5858 11.25 11H12.75ZM11.25 16C11.25 16.4142 11.5858 16.75 12 16.75C12.4142 16.75 12.75 16.4142 12.75 16H11.25ZM8.54415 5.36754L7.83264 5.13037L7.83264 5.13037L8.54415 5.36754ZM15.4558 5.36754L16.1674 5.13037L16.1674 5.13037L15.4558 5.36754ZM7 7.75H17V6.25H7V7.75ZM19.25 10V17H20.75V10H19.25ZM17 19.25H7V20.75H17V19.25ZM4.75 17V10H3.25V17H4.75ZM7 19.25C5.75736 19.25 4.75 18.2426 4.75 17H3.25C3.25 19.0711 4.92893 20.75 7 20.75V19.25ZM19.25 17C19.25 18.2426 18.2426 19.25 17 19.25V20.75C19.0711 20.75 20.75 19.0711 20.75 17H19.25ZM17 7.75C18.2426 7.75 19.25 8.75736 19.25 10H20.75C20.75 7.92893 19.0711 6.25 17 6.25V7.75ZM7 6.25C4.92893 6.25 3.25 7.92893 3.25 10H4.75C4.75 8.75736 5.75736 7.75 7 7.75V6.25ZM9.5 14.25H14.5V12.75H9.5V14.25ZM11.25 11V16H12.75V11H11.25ZM8.71151 7.23717L9.25566 5.60472L7.83264 5.13037L7.28849 6.76283L8.71151 7.23717ZM14.7443 5.60472L15.2885 7.23717L16.7115 6.76283L16.1674 5.13037L14.7443 5.60472ZM13.5585 4.75C14.0965 4.75 14.5742 5.09429 14.7443 5.60472L16.1674 5.13037C15.793 4.00743 14.7422 3.25 13.5585 3.25V4.75ZM9.25566 5.60472C9.42581 5.09429 9.90348 4.75 10.4415 4.75V3.25C9.25784 3.25 8.20695 4.00743 7.83264 5.13037L9.25566 5.60472ZM10.4415 4.75H13.5585V3.25H10.4415V4.75Z" fill="#5985CB"/>
</svg>
