<svg width="24" height="24" viewBox="0 0 24 24" fill="none" xmlns="http://www.w3.org/2000/svg">
<path d="M11.286 3C10.5214 3 9.8792 3.57504 9.79508 4.33496L9.70179 5.17768C9.392 5.28214 9.09109 5.40347 8.80179 5.54732L8.1383 5.01778C7.54143 4.5414 6.68193 4.5895 6.14194 5.12949L5.12949 6.14194C4.5895 6.68193 4.5414 7.54143 5.01778 8.1383L5.54732 8.80179C5.40347 9.09109 5.28214 9.392 5.17768 9.70179L4.33496 9.79508C3.57504 9.8792 3 10.5214 3 11.286V12.714C3 13.4786 3.57504 14.1208 4.33496 14.2049L5.17768 14.2982C5.28214 14.608 5.40347 14.9089 5.54732 15.1982L5.01778 15.8617C4.5414 16.4586 4.5895 17.3181 5.12949 17.8581L6.14194 18.8705C6.68193 19.4105 7.54143 19.4586 8.1383 18.9822L8.80179 18.4527C9.09109 18.5965 9.392 18.7179 9.70179 18.8223L9.79508 19.665C9.8792 20.425 10.5214 21 11.286 21H12.714C13.4786 21 14.1208 20.425 14.2049 19.665L14.2982 18.8223C14.608 18.7179 14.9089 18.5965 15.1982 18.4527L15.8617 18.9822C16.4586 19.4586 17.3181 19.4105 17.8581 18.8705L18.8705 17.8581C19.4105 17.3181 19.4586 16.4586 18.9822 15.8617L18.4527 15.1982C18.5965 14.9089 18.7179 14.608 18.8223 14.2982L19.665 14.2049C20.425 14.1208 21 13.4786 21 12.714V11.286C21 10.5214 20.425 9.8792 19.665 9.79508L18.8223 9.70179C18.7179 9.392 18.5965 9.09109 18.4527 8.80179L18.9822 8.1383C19.4586 7.54143 19.4105 6.68193 18.8705 6.14194L17.8581 5.12949C17.3181 4.5895 16.4586 4.5414 15.8617 5.01778L15.1982 5.54732C14.9089 5.40347 14.608 5.28214 14.2982 5.17768L14.2049 4.33496C14.1208 3.57504 13.4786 3 12.714 3H11.286Z" stroke="#5985CB" stroke-width="1.5" stroke-linejoin="round"/>
<path d="M12 9C13.6569 9 15 10.3431 15 12C15 13.6568 13.6569 15 12 15C10.3431 15 9 13.6568 9 12C9 10.3431 10.3431 9 12 9Z" stroke="#5985CB" stroke-width="1.5" stroke-linejoin="round"/>
</svg>
