<svg width="24" height="24" viewBox="0 0 24 24" fill="none" xmlns="http://www.w3.org/2000/svg">
<g id="grups_team_outline_24px">
<path id="icon" d="M15.1514 11.8888H18.7318C20.5369 11.8888 22.0002 13.3522 22.0002 15.1573C22.0002 16.0598 21.2685 16.7915 20.366 16.7915H19.112M12.7545 7.89529C12.7545 9.78125 11.2225 11.3101 9.33276 11.3101C7.443 11.3101 5.91104 9.78125 5.91104 7.89529C5.91104 6.00934 7.443 4.48047 9.33276 4.48047C11.2225 4.48047 12.7545 6.00934 12.7545 7.89529ZM9.33226 13.7493C8.29661 13.7493 7.06113 13.7493 5.90222 13.7493C3.74684 13.7493 2 15.4965 2 17.6519C2 18.7296 2.87364 19.6032 3.95133 19.6032H14.7132C15.7909 19.6032 16.6645 18.7296 16.6645 17.6519C16.6645 15.4965 14.9177 13.7493 12.7623 13.7493C11.6034 13.7493 10.3679 13.7493 9.33226 13.7493ZM19.3933 7.27672C19.3933 8.53402 18.372 9.55327 17.1122 9.55327C15.8524 9.55327 14.8311 8.53402 14.8311 7.27672C14.8311 6.01942 15.8524 5.00018 17.1122 5.00018C18.372 5.00018 19.3933 6.01942 19.3933 7.27672Z" stroke="#5985CB" stroke-width="1.5" stroke-linecap="round"/>
</g>
</svg>
