<svg width="24" height="24" viewBox="0 0 24 24" fill="none" xmlns="http://www.w3.org/2000/svg">
<path d="M18 16.8082H19C20.105 16.8082 21 15.9255 21 14.8356V11.8767C21 10.7869 20.105 9.90411 19 9.90411H18C17.448 9.90411 17 10.346 17 10.8904V15.8219C17 16.3664 17.448 16.8082 18 16.8082ZM18 16.8082L18 17.7945C18 18.8844 17.105 19.7671 16 19.7671H13.875M18.5 9.90411V9.41096C18.5 5.87014 15.59 3 12 3C8.41 3 5.5 5.87014 5.5 9.41096V9.90411M13.875 19.7671C13.875 19.0866 13.315 18.5342 12.625 18.5342H11.375C10.685 18.5342 10.125 19.0866 10.125 19.7671C10.125 20.4477 10.685 21 11.375 21H12.625C13.315 21 13.875 20.4477 13.875 19.7671ZM6 16.8082H5C3.895 16.8082 3 15.9255 3 14.8356V11.8767C3 10.7869 3.895 9.90411 5 9.90411H6C6.552 9.90411 7 10.346 7 10.8904V15.8219C7 16.3664 6.552 16.8082 6 16.8082Z" stroke="#5985CB" stroke-width="1.5" stroke-linecap="round" stroke-linejoin="round"/>
</svg>
