<svg width="27" height="28" viewBox="0 0 27 28" fill="none" xmlns="http://www.w3.org/2000/svg">
<path d="M25.8957 12.4532H17.1457M17.1457 12.4532L20.0623 15.2951M17.1457 12.4532L20.0623 9.61132M12.7717 23.8204H17.1474C18.7582 23.8204 20.0634 22.5146 20.0634 20.9038V19.5576M20.0619 5.34827V4.00211C20.0619 2.39128 18.7609 1.08545 17.1501 1.08545H2.56189M1.99047 23.4879L8.71026 26.3524C10.6342 27.1726 12.7707 25.7609 12.7707 23.6694V8.2392C12.7707 6.486 11.7241 4.90211 10.1113 4.21461L3.13421 1.24041C2.17222 0.830335 1.104 1.5362 1.104 2.58194V22.1464C1.104 22.7308 1.45287 23.2587 1.99047 23.4879Z" stroke="white" stroke-width="2" stroke-linecap="round" stroke-linejoin="round"/>
</svg>
