<?xml version="1.0" standalone="no"?>
<!DOCTYPE svg PUBLIC "-//W3C//DTD SVG 20010904//EN"
 "http://www.w3.org/TR/2001/REC-SVG-20010904/DTD/svg10.dtd">
<svg version="1.0" xmlns="http://www.w3.org/2000/svg"
 width="302.000000pt" height="302.000000pt" viewBox="0 0 302.000000 302.000000"
 preserveAspectRatio="xMidYMid meet">
<metadata>
Created by potrace 1.14, written by Peter Selinger 2001-2017
</metadata>
<g transform="translate(0.000000,302.000000) scale(0.100000,-0.100000)"
fill="#000000" stroke="none">
<path d="M1535 2990 c-116 -28 -209 -75 -296 -147 -69 -59 -166 -215 -202
-328 -35 -108 -67 -315 -49 -315 5 0 34 11 63 24 107 47 333 127 410 145 256
60 476 -67 463 -266 -6 -94 -46 -141 -143 -170 -107 -31 -189 -31 -312 -2 -52
13 -96 23 -99 24 -3 1 -32 9 -65 20 -33 10 -62 19 -65 20 -3 1 -18 7 -33 13
-16 7 -31 12 -35 12 -8 0 -184 65 -217 80 -11 5 -49 20 -85 34 -36 13 -85 34
-110 45 -73 32 -240 58 -365 55 -60 -1 -121 -5 -134 -8 -109 -25 -184 -76
-224 -150 -19 -35 -22 -57 -22 -151 0 -105 2 -114 33 -177 74 -151 241 -240
478 -255 l91 -5 7 53 c4 30 7 54 6 54 0 0 10 30 24 68 44 116 84 166 166 208
37 19 60 23 140 23 110 1 140 -3 320 -40 41 -9 86 -18 100 -20 14 -2 34 -6 45
-9 77 -17 265 -24 335 -13 85 13 218 66 256 102 7 6 33 28 58 50 109 90 197
245 226 395 10 53 14 171 7 201 -2 8 -7 31 -11 50 -30 132 -150 276 -278 334
-105 48 -158 59 -293 61 -86 2 -140 -3 -190 -15z"/>
<path d="M2437 2431 c-66 -42 -95 -75 -128 -145 -30 -63 -36 -100 -43 -266 -7
-156 -37 -284 -94 -400 -9 -19 -20 -36 -24 -38 -5 -2 -8 -8 -8 -13 0 -29 -105
-125 -174 -159 -60 -30 -72 -34 -151 -47 -86 -14 -357 -7 -445 12 -76 17 -128
27 -150 30 -35 4 -101 14 -130 20 -34 7 -218 8 -255 1 -16 -3 -50 -8 -74 -12
-25 -3 -74 -15 -110 -25 -36 -11 -75 -22 -86 -24 -60 -14 -210 -102 -264 -154
-72 -69 -104 -124 -130 -221 -29 -108 -31 -124 -36 -240 -13 -308 132 -535
430 -676 40 -20 96 -41 124 -49 72 -19 202 -16 284 7 66 18 187 77 215 105 7
7 17 13 22 13 28 0 312 210 424 313 91 84 212 195 228 209 19 16 204 187 263
241 16 16 75 70 129 120 55 51 107 99 116 107 50 47 49 36 -5 -65 -177 -334
-370 -544 -540 -587 -27 -7 -52 -13 -54 -15 -6 -4 73 -104 122 -156 50 -52 82
-74 166 -118 60 -30 73 -33 180 -35 126 -4 211 10 283 47 54 27 58 31 148 120
122 122 242 317 303 494 29 83 31 101 33 241 3 244 -20 316 -118 369 -81 44
-184 41 -315 -12 -107 -42 -317 -165 -364 -212 -9 -9 -52 -47 -94 -86 -43 -38
-97 -88 -120 -110 -24 -22 -114 -107 -201 -190 -87 -82 -170 -161 -184 -175
-82 -81 -141 -112 -275 -145 -154 -39 -286 -40 -367 -2 -66 30 -105 66 -151
139 -44 68 -59 115 -56 175 5 122 93 203 289 263 68 22 95 24 305 26 250 2
361 15 487 59 159 56 272 137 341 247 39 62 55 101 108 263 21 66 42 127 45
135 10 25 95 -206 110 -297 8 -49 10 -50 98 -27 33 9 68 17 76 19 29 6 96 40
142 72 85 61 127 187 123 376 -1 67 -6 138 -10 157 -37 180 -182 328 -337 346
-48 5 -58 2 -101 -25z"/>
</g>
</svg>
